<mxfile host="app.diagrams.net" modified="2021-12-08T13:53:49.809Z" agent="5.0 (Macintosh; Intel Mac OS X 10_15_7) AppleWebKit/537.36 (KHTML, like Gecko) Chrome/96.0.4664.55 Safari/537.36" etag="TXvTmBKsrrx3m8kOdIco" version="15.9.1" type="github">
  <diagram name="Page-1" id="7e0a89b8-554c-2b80-1dc8-d5c74ca68de4">
    <mxGraphModel dx="1426" dy="864" grid="1" gridSize="10" guides="1" tooltips="1" connect="1" arrows="1" fold="1" page="1" pageScale="1" pageWidth="1100" pageHeight="850" background="none" math="0" shadow="0">
      <root>
        <mxCell id="0" />
        <mxCell id="1" parent="0" />
        <mxCell id="G5LPs2RKbsboO_s4vSr6-1" value="" style="verticalLabelPosition=bottom;shadow=0;dashed=0;align=center;html=1;verticalAlign=top;strokeWidth=1;shape=ellipse;perimeter=ellipsePerimeter;" vertex="1" parent="1">
          <mxGeometry x="420" y="108.75" width="15" height="15" as="geometry" />
        </mxCell>
        <mxCell id="G5LPs2RKbsboO_s4vSr6-2" value="" style="verticalLabelPosition=bottom;shadow=0;dashed=0;align=center;html=1;verticalAlign=top;strokeWidth=1;shape=ellipse;perimeter=ellipsePerimeter;" vertex="1" parent="1">
          <mxGeometry x="420" y="246.25" width="15" height="15" as="geometry" />
        </mxCell>
        <mxCell id="G5LPs2RKbsboO_s4vSr6-3" value="GPIO12 ESP32" style="text;html=1;strokeColor=none;fillColor=none;align=center;verticalAlign=middle;whiteSpace=wrap;rounded=0;" vertex="1" parent="1">
          <mxGeometry x="460" y="238.75" width="60" height="30" as="geometry" />
        </mxCell>
        <mxCell id="G5LPs2RKbsboO_s4vSr6-4" value="GND ESP32" style="text;html=1;strokeColor=none;fillColor=none;align=center;verticalAlign=middle;whiteSpace=wrap;rounded=0;" vertex="1" parent="1">
          <mxGeometry x="460" y="101.25" width="60" height="30" as="geometry" />
        </mxCell>
        <mxCell id="G5LPs2RKbsboO_s4vSr6-5" value="" style="pointerEvents=1;verticalLabelPosition=bottom;shadow=0;dashed=0;align=center;html=1;verticalAlign=top;shape=mxgraph.electrical.resistors.resistor_1;" vertex="1" parent="1">
          <mxGeometry x="270" y="140" width="90" height="20" as="geometry" />
        </mxCell>
        <mxCell id="G5LPs2RKbsboO_s4vSr6-6" value="" style="endArrow=none;html=1;rounded=0;exitX=1;exitY=0.5;exitDx=0;exitDy=0;exitPerimeter=0;entryX=0;entryY=0.5;entryDx=0;entryDy=0;" edge="1" parent="1" source="G5LPs2RKbsboO_s4vSr6-8" target="G5LPs2RKbsboO_s4vSr6-2">
          <mxGeometry width="50" height="50" relative="1" as="geometry">
            <mxPoint x="470" y="418.75" as="sourcePoint" />
            <mxPoint x="520" y="368.75" as="targetPoint" />
          </mxGeometry>
        </mxCell>
        <mxCell id="G5LPs2RKbsboO_s4vSr6-7" value="" style="endArrow=none;html=1;rounded=0;entryX=0;entryY=0.5;entryDx=0;entryDy=0;entryPerimeter=0;exitX=0;exitY=0.5;exitDx=0;exitDy=0;exitPerimeter=0;" edge="1" parent="1" source="G5LPs2RKbsboO_s4vSr6-8" target="G5LPs2RKbsboO_s4vSr6-5">
          <mxGeometry width="50" height="50" relative="1" as="geometry">
            <mxPoint x="270" y="508.75" as="sourcePoint" />
            <mxPoint x="220" y="126.25" as="targetPoint" />
          </mxGeometry>
        </mxCell>
        <mxCell id="G5LPs2RKbsboO_s4vSr6-8" value="" style="pointerEvents=1;fillColor=strokeColor;verticalLabelPosition=bottom;shadow=0;dashed=0;align=center;html=1;verticalAlign=top;shape=mxgraph.electrical.diodes.diode;" vertex="1" parent="1">
          <mxGeometry x="270" y="223.75" width="100" height="60" as="geometry" />
        </mxCell>
        <mxCell id="G5LPs2RKbsboO_s4vSr6-9" value="" style="verticalLabelPosition=bottom;shadow=0;dashed=0;align=center;html=1;verticalAlign=top;strokeWidth=1;shape=ellipse;perimeter=ellipsePerimeter;" vertex="1" parent="1">
          <mxGeometry x="420" y="321.25" width="15" height="15" as="geometry" />
        </mxCell>
        <mxCell id="G5LPs2RKbsboO_s4vSr6-10" value="" style="endArrow=none;html=1;rounded=0;exitX=1;exitY=0.5;exitDx=0;exitDy=0;exitPerimeter=0;entryX=0;entryY=0.5;entryDx=0;entryDy=0;" edge="1" parent="1" source="G5LPs2RKbsboO_s4vSr6-11" target="G5LPs2RKbsboO_s4vSr6-9">
          <mxGeometry width="50" height="50" relative="1" as="geometry">
            <mxPoint x="470" y="493.75" as="sourcePoint" />
            <mxPoint x="520" y="443.75" as="targetPoint" />
          </mxGeometry>
        </mxCell>
        <mxCell id="G5LPs2RKbsboO_s4vSr6-11" value="" style="pointerEvents=1;fillColor=strokeColor;verticalLabelPosition=bottom;shadow=0;dashed=0;align=center;html=1;verticalAlign=top;shape=mxgraph.electrical.diodes.diode;" vertex="1" parent="1">
          <mxGeometry x="270" y="298.75" width="100" height="60" as="geometry" />
        </mxCell>
        <mxCell id="G5LPs2RKbsboO_s4vSr6-12" value="" style="verticalLabelPosition=bottom;shadow=0;dashed=0;align=center;html=1;verticalAlign=top;strokeWidth=1;shape=ellipse;perimeter=ellipsePerimeter;" vertex="1" parent="1">
          <mxGeometry x="420" y="401.25" width="15" height="15" as="geometry" />
        </mxCell>
        <mxCell id="G5LPs2RKbsboO_s4vSr6-13" value="" style="endArrow=none;html=1;rounded=0;exitX=1;exitY=0.5;exitDx=0;exitDy=0;exitPerimeter=0;entryX=0;entryY=0.5;entryDx=0;entryDy=0;" edge="1" parent="1" source="G5LPs2RKbsboO_s4vSr6-14" target="G5LPs2RKbsboO_s4vSr6-12">
          <mxGeometry width="50" height="50" relative="1" as="geometry">
            <mxPoint x="470" y="573.75" as="sourcePoint" />
            <mxPoint x="520" y="523.75" as="targetPoint" />
          </mxGeometry>
        </mxCell>
        <mxCell id="G5LPs2RKbsboO_s4vSr6-14" value="" style="pointerEvents=1;fillColor=strokeColor;verticalLabelPosition=bottom;shadow=0;dashed=0;align=center;html=1;verticalAlign=top;shape=mxgraph.electrical.diodes.diode;" vertex="1" parent="1">
          <mxGeometry x="270" y="378.75" width="100" height="60" as="geometry" />
        </mxCell>
        <mxCell id="G5LPs2RKbsboO_s4vSr6-21" value="" style="endArrow=none;html=1;rounded=0;entryX=0;entryY=0.5;entryDx=0;entryDy=0;" edge="1" parent="1" target="G5LPs2RKbsboO_s4vSr6-1">
          <mxGeometry width="50" height="50" relative="1" as="geometry">
            <mxPoint x="390" y="116.25" as="sourcePoint" />
            <mxPoint x="520" y="368.75" as="targetPoint" />
          </mxGeometry>
        </mxCell>
        <mxCell id="G5LPs2RKbsboO_s4vSr6-22" value="GPIO13 ESP32" style="text;html=1;strokeColor=none;fillColor=none;align=center;verticalAlign=middle;whiteSpace=wrap;rounded=0;" vertex="1" parent="1">
          <mxGeometry x="460" y="313.75" width="60" height="30" as="geometry" />
        </mxCell>
        <mxCell id="G5LPs2RKbsboO_s4vSr6-23" value="GPIO17 ESP32" style="text;html=1;strokeColor=none;fillColor=none;align=center;verticalAlign=middle;whiteSpace=wrap;rounded=0;" vertex="1" parent="1">
          <mxGeometry x="460" y="393.75" width="60" height="30" as="geometry" />
        </mxCell>
        <mxCell id="G5LPs2RKbsboO_s4vSr6-26" value="" style="pointerEvents=1;verticalLabelPosition=bottom;shadow=0;dashed=0;align=center;html=1;verticalAlign=top;shape=mxgraph.electrical.resistors.resistor_1;" vertex="1" parent="1">
          <mxGeometry x="270" y="106.25" width="90" height="20" as="geometry" />
        </mxCell>
        <mxCell id="G5LPs2RKbsboO_s4vSr6-27" value="" style="endArrow=none;html=1;rounded=0;entryX=0;entryY=0.5;entryDx=0;entryDy=0;entryPerimeter=0;exitX=0;exitY=0.5;exitDx=0;exitDy=0;exitPerimeter=0;" edge="1" parent="1" source="G5LPs2RKbsboO_s4vSr6-11" target="G5LPs2RKbsboO_s4vSr6-26">
          <mxGeometry width="50" height="50" relative="1" as="geometry">
            <mxPoint x="280" y="283.75" as="sourcePoint" />
            <mxPoint x="230" y="156.25" as="targetPoint" />
            <Array as="points">
              <mxPoint x="250" y="328.75" />
              <mxPoint x="250" y="116" />
            </Array>
          </mxGeometry>
        </mxCell>
        <mxCell id="G5LPs2RKbsboO_s4vSr6-28" value="" style="pointerEvents=1;verticalLabelPosition=bottom;shadow=0;dashed=0;align=center;html=1;verticalAlign=top;shape=mxgraph.electrical.resistors.resistor_1;" vertex="1" parent="1">
          <mxGeometry x="270" y="70" width="90" height="20" as="geometry" />
        </mxCell>
        <mxCell id="G5LPs2RKbsboO_s4vSr6-29" value="" style="endArrow=none;html=1;rounded=0;entryX=0;entryY=0.5;entryDx=0;entryDy=0;entryPerimeter=0;exitX=0;exitY=0.5;exitDx=0;exitDy=0;exitPerimeter=0;" edge="1" parent="1" source="G5LPs2RKbsboO_s4vSr6-14" target="G5LPs2RKbsboO_s4vSr6-28">
          <mxGeometry width="50" height="50" relative="1" as="geometry">
            <mxPoint x="270" y="371.25" as="sourcePoint" />
            <mxPoint x="230" y="198.75" as="targetPoint" />
            <Array as="points">
              <mxPoint x="230" y="408.75" />
              <mxPoint x="230" y="80" />
            </Array>
          </mxGeometry>
        </mxCell>
        <mxCell id="G5LPs2RKbsboO_s4vSr6-34" value="" style="endArrow=none;html=1;rounded=0;exitX=1;exitY=0.5;exitDx=0;exitDy=0;exitPerimeter=0;entryX=1;entryY=0.5;entryDx=0;entryDy=0;entryPerimeter=0;" edge="1" parent="1" source="G5LPs2RKbsboO_s4vSr6-28" target="G5LPs2RKbsboO_s4vSr6-5">
          <mxGeometry width="50" height="50" relative="1" as="geometry">
            <mxPoint x="390" y="111.25" as="sourcePoint" />
            <mxPoint x="360" y="120" as="targetPoint" />
          </mxGeometry>
        </mxCell>
        <mxCell id="G5LPs2RKbsboO_s4vSr6-35" value="" style="endArrow=none;html=1;rounded=0;entryX=0;entryY=0.5;entryDx=0;entryDy=0;" edge="1" parent="1" target="G5LPs2RKbsboO_s4vSr6-1">
          <mxGeometry width="50" height="50" relative="1" as="geometry">
            <mxPoint x="360" y="116.25" as="sourcePoint" />
            <mxPoint x="70" y="401.25" as="targetPoint" />
          </mxGeometry>
        </mxCell>
        <mxCell id="G5LPs2RKbsboO_s4vSr6-38" value="" style="verticalLabelPosition=bottom;shadow=0;dashed=0;align=center;html=1;verticalAlign=top;strokeWidth=1;shape=ellipse;perimeter=ellipsePerimeter;" vertex="1" parent="1">
          <mxGeometry x="170" y="477.5" width="15" height="15" as="geometry" />
        </mxCell>
        <mxCell id="G5LPs2RKbsboO_s4vSr6-39" value="GND SG90" style="text;html=1;strokeColor=none;fillColor=none;align=center;verticalAlign=middle;whiteSpace=wrap;rounded=0;" vertex="1" parent="1">
          <mxGeometry x="90" y="470" width="60" height="30" as="geometry" />
        </mxCell>
        <mxCell id="G5LPs2RKbsboO_s4vSr6-41" value="" style="verticalLabelPosition=bottom;shadow=0;dashed=0;align=center;html=1;verticalAlign=top;strokeWidth=1;shape=ellipse;perimeter=ellipsePerimeter;" vertex="1" parent="1">
          <mxGeometry x="420" y="517.5" width="15" height="15" as="geometry" />
        </mxCell>
        <mxCell id="G5LPs2RKbsboO_s4vSr6-42" value="5V&lt;br&gt;ESP32" style="text;html=1;strokeColor=none;fillColor=none;align=center;verticalAlign=middle;whiteSpace=wrap;rounded=0;" vertex="1" parent="1">
          <mxGeometry x="460" y="510" width="60" height="30" as="geometry" />
        </mxCell>
        <mxCell id="G5LPs2RKbsboO_s4vSr6-43" value="" style="verticalLabelPosition=bottom;shadow=0;dashed=0;align=center;html=1;verticalAlign=top;strokeWidth=1;shape=ellipse;perimeter=ellipsePerimeter;" vertex="1" parent="1">
          <mxGeometry x="170" y="517.5" width="15" height="15" as="geometry" />
        </mxCell>
        <mxCell id="G5LPs2RKbsboO_s4vSr6-44" value="VCC&lt;br&gt;SG90" style="text;html=1;strokeColor=none;fillColor=none;align=center;verticalAlign=middle;whiteSpace=wrap;rounded=0;" vertex="1" parent="1">
          <mxGeometry x="90" y="510" width="60" height="30" as="geometry" />
        </mxCell>
        <mxCell id="G5LPs2RKbsboO_s4vSr6-45" value="" style="verticalLabelPosition=bottom;shadow=0;dashed=0;align=center;html=1;verticalAlign=top;strokeWidth=1;shape=ellipse;perimeter=ellipsePerimeter;" vertex="1" parent="1">
          <mxGeometry x="420" y="557.5" width="15" height="15" as="geometry" />
        </mxCell>
        <mxCell id="G5LPs2RKbsboO_s4vSr6-46" value="GPIO14 PWM&lt;br&gt;ESP32" style="text;html=1;strokeColor=none;fillColor=none;align=center;verticalAlign=middle;whiteSpace=wrap;rounded=0;" vertex="1" parent="1">
          <mxGeometry x="460" y="557.5" width="90" height="30" as="geometry" />
        </mxCell>
        <mxCell id="G5LPs2RKbsboO_s4vSr6-47" value="" style="verticalLabelPosition=bottom;shadow=0;dashed=0;align=center;html=1;verticalAlign=top;strokeWidth=1;shape=ellipse;perimeter=ellipsePerimeter;" vertex="1" parent="1">
          <mxGeometry x="170" y="557.5" width="15" height="15" as="geometry" />
        </mxCell>
        <mxCell id="G5LPs2RKbsboO_s4vSr6-48" value="PWM&lt;br&gt;SG90" style="text;html=1;strokeColor=none;fillColor=none;align=center;verticalAlign=middle;whiteSpace=wrap;rounded=0;" vertex="1" parent="1">
          <mxGeometry x="90" y="550" width="60" height="30" as="geometry" />
        </mxCell>
        <mxCell id="G5LPs2RKbsboO_s4vSr6-49" value="" style="endArrow=none;html=1;rounded=0;exitX=1;exitY=0.5;exitDx=0;exitDy=0;entryX=1;entryY=0.5;entryDx=0;entryDy=0;entryPerimeter=0;" edge="1" parent="1" source="G5LPs2RKbsboO_s4vSr6-38" target="G5LPs2RKbsboO_s4vSr6-28">
          <mxGeometry width="50" height="50" relative="1" as="geometry">
            <mxPoint x="250" y="510" as="sourcePoint" />
            <mxPoint x="200" y="60" as="targetPoint" />
            <Array as="points">
              <mxPoint x="200" y="485" />
              <mxPoint x="200" y="60" />
              <mxPoint x="360" y="60" />
            </Array>
          </mxGeometry>
        </mxCell>
        <mxCell id="G5LPs2RKbsboO_s4vSr6-50" value="" style="endArrow=none;html=1;rounded=0;exitX=1;exitY=0.5;exitDx=0;exitDy=0;entryX=0;entryY=0.5;entryDx=0;entryDy=0;" edge="1" parent="1" source="G5LPs2RKbsboO_s4vSr6-43" target="G5LPs2RKbsboO_s4vSr6-41">
          <mxGeometry width="50" height="50" relative="1" as="geometry">
            <mxPoint x="250" y="500" as="sourcePoint" />
            <mxPoint x="300" y="450" as="targetPoint" />
          </mxGeometry>
        </mxCell>
        <mxCell id="G5LPs2RKbsboO_s4vSr6-51" value="" style="endArrow=none;html=1;rounded=0;exitX=1;exitY=0.5;exitDx=0;exitDy=0;entryX=0;entryY=0.5;entryDx=0;entryDy=0;" edge="1" parent="1" source="G5LPs2RKbsboO_s4vSr6-47" target="G5LPs2RKbsboO_s4vSr6-45">
          <mxGeometry width="50" height="50" relative="1" as="geometry">
            <mxPoint x="250" y="500" as="sourcePoint" />
            <mxPoint x="300" y="450" as="targetPoint" />
          </mxGeometry>
        </mxCell>
        <mxCell id="G5LPs2RKbsboO_s4vSr6-52" value="RED" style="text;html=1;strokeColor=none;fillColor=none;align=center;verticalAlign=middle;whiteSpace=wrap;rounded=0;" vertex="1" parent="1">
          <mxGeometry x="340" y="208.75" width="60" height="30" as="geometry" />
        </mxCell>
        <mxCell id="G5LPs2RKbsboO_s4vSr6-53" value="YELLOW" style="text;html=1;strokeColor=none;fillColor=none;align=center;verticalAlign=middle;whiteSpace=wrap;rounded=0;" vertex="1" parent="1">
          <mxGeometry x="340" y="283.75" width="60" height="30" as="geometry" />
        </mxCell>
        <mxCell id="G5LPs2RKbsboO_s4vSr6-54" value="GREEN" style="text;html=1;strokeColor=none;fillColor=none;align=center;verticalAlign=middle;whiteSpace=wrap;rounded=0;" vertex="1" parent="1">
          <mxGeometry x="340" y="363.75" width="60" height="30" as="geometry" />
        </mxCell>
      </root>
    </mxGraphModel>
  </diagram>
</mxfile>
